<svg xmlns="http://www.w3.org/2000/svg" viewBox="0 0 40 40" width="40" height="40">
  <circle cx="20" cy="20" r="20" fill="#0b1c30" />
  <!-- Stylized head profile looking right -->
  <path d="M12,24 C12,16 16.5,12.5 21.5,12.5 C26.5,12.5 28.5,15 28.5,18.5 C28.5,19.3 28.1,20.1 28.1,20.9 C28.1,21.7 29.3,22.5 29.3,23.3 C29.3,24.1 28.1,24.9 27.3,24.9 C26.9,25.7 26.5,26.9 26.1,28.1 C25.1,30.3 23,30.5 21,30.5 C16,30.5 12,28.5 12,24 Z" fill="#1d4ed8" opacity="0.6" />
  <path d="M14,24 C14,17.5 17.5,14.5 21.5,14.5 C25.5,14.5 27.5,16.5 27.5,19.5 C27.5,20.3 27.1,21.1 27.1,21.9 C27.1,22.7 28.3,23.5 28.3,24.3 C28.3,25.1 27.1,25.9 26.3,25.9 C25.9,26.7 25.5,27.9 25.1,29.1 C24.1,31.3 22.5,31.5 21,31.5 C17,31.5 14,29.5 14,24 Z" fill="#3155f6" />
  
  <!-- Neural mesh lines -->
  <line x1="17" y1="21" x2="21" y2="18" stroke="#ffffff" stroke-width="0.75" opacity="0.8" />
  <line x1="21" y1="18" x2="25" y2="20" stroke="#ffffff" stroke-width="0.75" opacity="0.8" />
  <line x1="25" y1="20" x2="23" y2="25" stroke="#ffffff" stroke-width="0.75" opacity="0.8" />
  <line x1="23" y1="25" x2="19" y2="24" stroke="#ffffff" stroke-width="0.75" opacity="0.8" />
  <line x1="19" y1="24" x2="17" y2="21" stroke="#ffffff" stroke-width="0.75" opacity="0.8" />
  <line x1="21" y1="18" x2="23" y2="25" stroke="#ffffff" stroke-width="0.75" opacity="0.8" />
  
  <!-- Neural nodes -->
  <circle cx="17" cy="21" r="1.2" fill="#00d2ff" />
  <circle cx="21" cy="18" r="1.5" fill="#ffffff" />
  <circle cx="25" cy="20" r="1.2" fill="#00d2ff" />
  <circle cx="23" cy="25" r="1.5" fill="#ffffff" />
  <circle cx="19" cy="24" r="1.2" fill="#00d2ff" />
</svg>
